<?xml version="1.0" encoding="UTF-8" standalone="no"?><!DOCTYPE svg PUBLIC "-//W3C//DTD SVG 1.1//EN" "http://www.w3.org/Graphics/SVG/1.1/DTD/svg11.dtd"><svg width="100%" height="100%" viewBox="0 0 406 136" version="1.1" xmlns="http://www.w3.org/2000/svg" xmlns:xlink="http://www.w3.org/1999/xlink" xml:space="preserve" xmlns:serif="http://www.serif.com/" style="fill-rule:evenodd;clip-rule:evenodd;stroke-linejoin:round;stroke-miterlimit:2;"><g><path d="M165.212,110.017l-0,0.365c-0,0.169 -0.113,0.281 -0.283,0.281l-5.013,-0c-0.198,-0 -0.283,-0.112 -0.283,-0.281l0,-8.178c0,-0.196 0.085,-0.281 0.283,-0.281l0.425,0c0.198,0 0.312,0.085 0.312,0.281l-0,7.532l4.276,-0c0.17,-0 0.283,0.112 0.283,0.281Z" style="fill:#e0a600;"/><path d="M175.01,110.663l-0.509,-0c-0.17,-0 -0.255,-0.056 -0.34,-0.225l-0.822,-1.995l-4.446,-0l-0.821,1.995c-0.085,0.169 -0.17,0.225 -0.34,0.225l-0.509,-0c-0.199,-0 -0.255,-0.141 -0.199,-0.337l3.455,-8.206c0.057,-0.14 0.17,-0.197 0.34,-0.197l0.623,0c0.17,0 0.283,0.057 0.34,0.197l3.455,8.206c0.085,0.196 -0,0.337 -0.227,0.337Zm0,-0m-2.039,-3.119l-1.869,-4.44l-1.84,4.44l3.709,-0Z" style="fill:#e0a600;"/><path d="M182.685,106.054c0.679,0.113 1.67,0.731 1.67,2.164c0,1.658 -1.047,2.445 -2.86,2.445l-3.285,-0c-0.198,-0 -0.283,-0.112 -0.283,-0.281l0,-8.178c0,-0.196 0.085,-0.281 0.283,-0.281l3.285,0c1.473,0 2.577,0.675 2.577,2.277c0,0.983 -0.736,1.714 -1.387,1.854Zm-0,0m-1.501,-0.337c1.133,0 1.869,-0.534 1.869,-1.461c-0,-1.18 -0.878,-1.461 -1.643,-1.461l-2.463,-0l-0,2.922l2.237,0Zm-0,0m2.124,2.473c-0,-0.984 -0.68,-1.574 -1.898,-1.574l-2.463,0l-0,3.148l2.548,-0c1.02,-0 1.813,-0.394 1.813,-1.574Z" style="fill:#e0a600;"/><path d="M186.819,106.307c0,-2.613 1.784,-4.524 4.475,-4.524c2.775,-0 4.559,1.911 4.559,4.524c-0,2.614 -1.784,4.525 -4.559,4.525c-2.691,-0 -4.475,-1.911 -4.475,-4.525Zm0,0m1.02,0c-0,2.052 1.501,3.597 3.511,3.597c1.983,0 3.455,-1.545 3.455,-3.597c0,-2.051 -1.472,-3.597 -3.455,-3.597c-2.01,0 -3.511,1.546 -3.511,3.597Z" style="fill:#e0a600;"/><path d="M204.972,110.326c0.113,0.168 0.028,0.337 -0.199,0.337l-0.566,-0c-0.142,-0 -0.227,-0.056 -0.312,-0.197l-1.897,-2.95c-0.085,0.028 -0.198,0.028 -0.283,0.028l-1.897,-0l-0,2.838c-0,0.169 -0.114,0.281 -0.312,0.281l-0.425,-0c-0.198,-0 -0.283,-0.112 -0.283,-0.281l0,-8.178c0,-0.196 0.085,-0.281 0.283,-0.281l2.662,0c2.209,0 3.37,1.124 3.37,2.782c0,1.265 -0.679,2.277 -2.01,2.642l1.869,2.979Zm-0,-0m-3.229,-3.682c1.586,0 2.351,-0.814 2.351,-1.939c-0,-1.124 -0.765,-1.882 -2.351,-1.882l-1.925,-0l-0,3.821l1.925,0Z" style="fill:#e0a600;"/><path d="M215.45,110.663l-0.51,-0c-0.17,-0 -0.255,-0.056 -0.34,-0.225l-0.821,-1.995l-4.446,-0l-0.822,1.995c-0.085,0.169 -0.169,0.225 -0.339,0.225l-0.51,-0c-0.198,-0 -0.255,-0.141 -0.198,-0.337l3.455,-8.206c0.056,-0.14 0.169,-0.197 0.339,-0.197l0.623,0c0.17,0 0.284,0.057 0.34,0.197l3.455,8.206c0.085,0.196 0,0.337 -0.226,0.337Zm-0,-0m-2.039,-3.119l-1.869,-4.44l-1.841,4.44l3.71,-0Z" style="fill:#e0a600;"/><path d="M222.586,102.823l-2.351,-0l0,7.559c0,0.169 -0.085,0.281 -0.254,0.281l-0.482,-0c-0.198,-0 -0.283,-0.112 -0.283,-0.281l-0,-7.559l-2.351,-0c-0.198,-0 -0.283,-0.113 -0.283,-0.281l0,-0.338c0,-0.196 0.085,-0.281 0.283,-0.281l5.721,0c0.198,0 0.311,0.085 0.311,0.281l0,0.338c0,0.168 -0.113,0.281 -0.311,0.281Z" style="fill:#e0a600;"/><path d="M224.908,106.335c0,-2.585 1.784,-4.552 4.474,-4.552c2.776,-0 4.56,1.967 4.56,4.552c-0,2.614 -1.784,4.525 -4.56,4.525c-2.69,-0 -4.474,-1.911 -4.474,-4.525Zm0,0m1.02,0c-0,2.052 1.5,3.597 3.511,3.597c1.982,0 3.455,-1.545 3.455,-3.597c-0,-2.051 -1.473,-3.569 -3.455,-3.569c-2.011,0 -3.511,1.518 -3.511,3.569Zm-0,0m3.058,-5.198l0.878,-1.349c0.056,-0.113 0.17,-0.113 0.311,-0.113l0.453,0.197c0.142,0.084 0.199,0.197 0.057,0.309l-1.019,1.096c-0.085,0.084 -0.17,0.141 -0.312,0.141l-0.226,-0c-0.17,-0 -0.227,-0.141 -0.142,-0.281Z" style="fill:#e0a600;"/><path d="M242.975,110.326c0.114,0.168 0.029,0.337 -0.198,0.337l-0.566,-0c-0.142,-0 -0.227,-0.056 -0.312,-0.197l-1.897,-2.95c-0.085,0.028 -0.198,0.028 -0.283,0.028l-1.898,-0l0,2.838c0,0.169 -0.113,0.281 -0.311,0.281l-0.425,-0c-0.198,-0 -0.283,-0.112 -0.283,-0.281l-0,-8.178c-0,-0.196 0.085,-0.281 0.283,-0.281l2.662,0c2.209,0 3.37,1.124 3.37,2.782c0,1.265 -0.68,2.277 -2.011,2.642l1.869,2.979Zm0,-0m-3.228,-3.682c1.586,0 2.351,-0.814 2.351,-1.939c-0,-1.124 -0.765,-1.882 -2.351,-1.882l-1.926,-0l0,3.821l1.926,0Z" style="fill:#e0a600;"/><path d="M247.082,110.663l-0.453,-0c-0.199,-0 -0.284,-0.112 -0.284,-0.281l0,-8.178c0,-0.196 0.085,-0.281 0.284,-0.281l0.453,0c0.198,0 0.311,0.085 0.311,0.281l0,8.178c0,0.169 -0.113,0.281 -0.311,0.281Z" style="fill:#e0a600;"/><path d="M250.31,106.307c0,-2.613 1.784,-4.524 4.474,-4.524c2.776,-0 4.56,1.911 4.56,4.524c-0,2.614 -1.784,4.525 -4.56,4.525c-2.69,-0 -4.474,-1.911 -4.474,-4.525Zm0,0m1.019,0c0,2.052 1.501,3.597 3.512,3.597c1.982,0 3.455,-1.545 3.455,-3.597c-0,-2.051 -1.473,-3.597 -3.455,-3.597c-2.011,0 -3.512,1.546 -3.512,3.597Z" style="fill:#e0a600;"/><path d="M267.33,110.382l-0,-8.178c-0,-0.196 0.085,-0.281 0.283,-0.281l2.124,0c3.086,0 4.899,1.687 4.899,4.384c-0,2.586 -1.784,4.356 -4.899,4.356l-2.124,-0c-0.198,-0 -0.283,-0.112 -0.283,-0.281Zm-0,-0m2.407,-0.646c2.35,-0 3.851,-1.153 3.851,-3.429c0,-2.332 -1.501,-3.484 -3.851,-3.484l-1.388,-0l0,6.913l1.388,-0Z" style="fill:#e0a600;"/><path d="M278.685,105.858l3.767,-0c0.198,-0 0.283,0.112 0.283,0.281l0,0.365c0,0.197 -0.085,0.281 -0.283,0.281l-3.767,-0l0,2.951l4.248,-0c0.199,-0 0.283,0.112 0.283,0.281l0,0.365c0,0.169 -0.084,0.281 -0.283,0.281l-4.984,-0c-0.198,-0 -0.283,-0.112 -0.283,-0.281l-0,-8.178c-0,-0.196 0.085,-0.281 0.283,-0.281l4.984,0c0.199,0 0.283,0.085 0.283,0.281l0,0.338c0,0.168 -0.084,0.281 -0.283,0.281l-4.248,-0l0,3.035Z" style="fill:#e0a600;"/><path d="M291.882,110.663l-0.453,-0c-0.198,-0 -0.283,-0.112 -0.283,-0.281l-0,-8.178c-0,-0.196 0.085,-0.281 0.283,-0.281l0.453,0c0.198,0 0.312,0.085 0.312,0.281l-0,8.178c-0,0.169 -0.114,0.281 -0.312,0.281Z" style="fill:#e0a600;"/><path d="M302.756,102.204l0,8.178c0,0.169 -0.113,0.281 -0.283,0.281l-0.509,-0c-0.142,-0 -0.255,-0.056 -0.34,-0.197l-4.843,-6.828l0,6.744c0,0.169 -0.113,0.281 -0.311,0.281l-0.425,-0c-0.198,-0 -0.283,-0.112 -0.283,-0.281l-0,-8.178c-0,-0.196 0.085,-0.281 0.283,-0.281l0.481,0c0.17,0 0.255,0.057 0.34,0.169l4.871,6.885l-0,-6.773c-0,-0.196 0.113,-0.281 0.283,-0.281l0.453,0c0.17,0 0.283,0.085 0.283,0.281Z" style="fill:#e0a600;"/><path d="M305.73,106.307c-0,-2.613 1.784,-4.524 4.503,-4.524c2.775,-0 4.559,1.911 4.559,4.524c-0,2.614 -1.784,4.525 -4.559,4.525c-2.719,-0 -4.503,-1.911 -4.503,-4.525Zm-0,0m1.019,0c0,2.052 1.53,3.597 3.512,3.597c1.982,0 3.483,-1.545 3.483,-3.597c0,-2.051 -1.501,-3.597 -3.483,-3.597c-1.982,0 -3.512,1.546 -3.512,3.597Z" style="fill:#e0a600;"/><path d="M325.015,102.233l-3.455,8.205c-0.085,0.169 -0.17,0.225 -0.34,0.225l-0.623,-0c-0.17,-0 -0.283,-0.056 -0.34,-0.225l-3.454,-8.205c-0.057,-0.197 -0,-0.31 0.198,-0.31l0.51,0c0.169,0 0.283,0.057 0.339,0.197l3.059,7.335l3.058,-7.335c0.057,-0.14 0.17,-0.197 0.312,-0.197l0.538,0c0.198,0 0.283,0.113 0.198,0.31Z" style="fill:#e0a600;"/><path d="M334.077,110.663l-0.51,-0c-0.17,-0 -0.255,-0.056 -0.34,-0.225l-0.821,-1.995l-4.446,-0l-0.821,1.995c-0.085,0.169 -0.17,0.225 -0.34,0.225l-0.51,-0c-0.198,-0 -0.254,-0.141 -0.198,-0.337l3.455,-8.206c0.057,-0.14 0.17,-0.197 0.34,-0.197l0.623,0c0.17,0 0.283,0.057 0.34,0.197l3.455,8.206c0.085,0.196 -0,0.337 -0.227,0.337Zm0,-0m-2.039,-3.119l-1.869,-4.44l-1.841,4.44l3.71,-0Z" style="fill:#e0a600;"/><path d="M344.47,108.921c-0.538,0.927 -1.699,1.826 -3.483,1.882l-0.113,0.31c0.028,-0 0.198,-0.029 0.481,-0c0.396,0.028 0.765,0.309 0.765,0.843c-0,0.758 -0.652,0.955 -1.133,0.955c-0.283,0 -0.51,-0.056 -0.68,-0.14c-0.141,-0.057 -0.198,-0.169 -0.141,-0.31c0.085,-0.168 0.17,-0.168 0.339,-0.14c0.085,0.028 0.227,0.056 0.369,0.056c0.283,0 0.566,-0.084 0.566,-0.421c-0,-0.253 -0.227,-0.366 -0.453,-0.366c-0.142,0 -0.312,0.028 -0.453,0.085c-0.17,0.028 -0.227,-0 -0.283,-0.057c-0.057,-0.056 -0.085,-0.112 -0.057,-0.253l0.17,-0.562c-2.407,-0.196 -4.135,-2.023 -4.135,-4.524c0,-2.585 1.926,-4.496 4.531,-4.496c1.926,-0 3.115,0.927 3.71,1.883c0.085,0.14 0.028,0.281 -0.113,0.365l-0.425,0.197c-0.17,0.084 -0.312,0.028 -0.425,-0.141c-0.425,-0.646 -1.416,-1.377 -2.747,-1.377c-1.925,0 -3.511,1.546 -3.511,3.541c-0,2.051 1.586,3.625 3.511,3.625c1.331,0 2.322,-0.731 2.776,-1.405c0.113,-0.14 0.226,-0.197 0.396,-0.112l0.453,0.224c0.17,0.085 0.17,0.225 0.085,0.338Z" style="fill:#e0a600;"/><path d="M354.353,110.691l-0.509,0c-0.17,0 -0.255,-0.056 -0.34,-0.225l-0.821,-1.995l-4.447,0l-0.821,1.995c-0.085,0.169 -0.17,0.225 -0.34,0.225l-0.509,0c-0.199,0 -0.255,-0.14 -0.199,-0.309l3.455,-8.262c0.057,-0.14 0.17,-0.197 0.34,-0.197l0.623,0c0.17,0 0.283,0.057 0.34,0.197l3.455,8.262c0.085,0.169 -0,0.309 -0.227,0.309Zm0,0m-2.039,-3.147l-1.869,-4.412l-1.84,4.412l3.709,-0Zm0,-0m-3.596,-6.52c0.17,-0.309 0.481,-0.534 0.963,-0.534c0.509,0 0.963,0.366 1.444,0.366c0.17,-0 0.283,-0.057 0.368,-0.141c0.113,-0.112 0.198,-0.197 0.368,-0.169l0.142,0.085c0.17,0.028 0.255,0.168 0.198,0.337c-0.17,0.365 -0.425,0.59 -0.906,0.59c-0.595,0 -1.048,-0.421 -1.529,-0.421c-0.17,-0 -0.312,0.056 -0.397,0.14c-0.113,0.141 -0.198,0.197 -0.34,0.141l-0.141,-0.029c-0.17,-0.056 -0.283,-0.196 -0.17,-0.365Z" style="fill:#e0a600;"/><path d="M356.562,106.307c0,-2.613 1.784,-4.524 4.475,-4.524c2.775,-0 4.559,1.911 4.559,4.524c-0,2.614 -1.784,4.525 -4.559,4.525c-2.691,-0 -4.475,-1.911 -4.475,-4.525Zm0,0m1.02,0c-0,2.052 1.501,3.597 3.511,3.597c1.983,0 3.455,-1.545 3.455,-3.597c0,-2.051 -1.472,-3.597 -3.455,-3.597c-2.01,0 -3.511,1.546 -3.511,3.597Z" style="fill:#e0a600;"/><path d="M57.855,61.739l0,38.948c0,5.114 4.192,9.273 9.346,9.273c5.154,0 9.345,-4.159 9.345,-9.273l-0,-38.948c-0,-20.908 -17.161,-37.937 -38.287,-37.937c-7.675,-0 -14.811,2.248 -20.843,6.126c-1.614,-2.782 -4.616,-4.693 -8.099,-4.693c-5.154,-0 -9.317,4.159 -9.317,9.273l-0,64.886c-0,5.115 4.163,9.274 9.317,9.274c5.154,-0 9.345,-4.159 9.345,-9.274l0,-37.655c0,-10.707 8.807,-19.418 19.597,-19.418c10.789,-0 19.596,8.711 19.596,19.418Z" style="fill:#e9aa00;"/><path d="M95.944,24.42c-5.154,0 -9.345,4.131 -9.345,9.245l-0,64.268c-0,10.735 -8.807,19.446 -19.597,19.446c-10.789,0 -19.596,-8.711 -19.596,-19.446l-0,-36.672c-0,-5.115 -4.191,-9.302 -9.346,-9.302c-5.154,0 -9.316,4.187 -9.316,9.302l-0,36.672c-0,20.936 17.161,37.965 38.258,37.965c21.126,-0 38.287,-17.029 38.287,-37.965l0,-64.268c0,-5.114 -4.191,-9.245 -9.345,-9.245Z" style="fill:#e9aa00;"/><path d="M96.086,18.715c5.21,0 9.458,-4.187 9.458,-9.385c0,-5.143 -4.248,-9.33 -9.458,-9.33c-5.183,0 -9.402,4.187 -9.402,9.33c-0,5.198 4.219,9.385 9.402,9.385Z" style="fill:#e9aa00;"/><path d="M145.927,65.392c0.736,1.18 1.331,2.22 1.812,3.119c0.51,0.871 1.02,1.883 1.529,2.979l0.397,-0c-0.113,-1.209 -0.198,-3.597 -0.283,-7.166c-0.057,-3.597 -0.114,-6.829 -0.114,-9.723l0,-6.211c0,-1.348 -0.028,-2.332 -0.113,-2.978c-0.085,-0.619 -0.226,-1.096 -0.425,-1.433c-0.226,-0.338 -0.509,-0.619 -0.906,-0.815c-0.368,-0.225 -0.991,-0.45 -1.925,-0.703l-0,-1.433l10.761,-0l-0,1.433c-0.907,0.225 -1.53,0.45 -1.898,0.646c-0.368,0.197 -0.651,0.45 -0.878,0.787c-0.226,0.309 -0.424,0.787 -0.538,1.405c-0.113,0.619 -0.17,1.658 -0.17,3.091l0,33.188l-3.738,0l-16.594,-27.652c-1.048,-1.714 -1.785,-2.95 -2.209,-3.737c-0.482,-0.787 -0.878,-1.574 -1.246,-2.361l-0.51,0c0.142,1.546 0.226,4.272 0.283,8.234c0.057,3.99 0.085,7.981 0.085,11.915l0,6.014c0,1.32 0.057,2.304 0.142,2.894c0.085,0.618 0.255,1.096 0.453,1.461c0.198,0.366 0.51,0.647 0.934,0.9c0.425,0.224 1.076,0.449 1.983,0.702l-0,1.433l-10.875,0l0,-1.433c1.218,-0.309 2.039,-0.674 2.464,-1.068c0.425,-0.365 0.68,-0.927 0.821,-1.63c0.113,-0.702 0.198,-1.798 0.198,-3.259l0,-25.601c0,-1.348 -0.056,-2.332 -0.17,-2.95c-0.084,-0.618 -0.254,-1.124 -0.481,-1.461c-0.226,-0.338 -0.538,-0.619 -0.906,-0.815c-0.368,-0.225 -1.02,-0.45 -1.926,-0.703l0,-1.433l9.345,-0l14.698,24.364Z" style="fill:#003256;"/><path d="M169.715,81.859c-4.135,0 -7.335,-1.208 -9.487,-3.625c-2.181,-2.417 -3.257,-5.986 -3.257,-10.707c0,-3.287 0.567,-6.041 1.699,-8.289c1.133,-2.249 2.719,-3.907 4.701,-5.002c2.011,-1.096 4.276,-1.63 6.825,-1.63c4.248,-0 7.476,1.208 9.657,3.653c2.18,2.473 3.285,5.985 3.285,10.594c-0,3.288 -0.538,6.042 -1.643,8.29c-1.076,2.248 -2.633,3.934 -4.644,5.03c-2.039,1.124 -4.418,1.686 -7.136,1.686Zm-0,0m-7.137,-14.978c0,4.075 0.652,7.194 1.983,9.386c1.302,2.164 3.171,3.26 5.578,3.26c1.331,-0 2.464,-0.338 3.399,-0.956c0.934,-0.646 1.699,-1.517 2.294,-2.585c0.594,-1.096 1.019,-2.361 1.302,-3.794c0.255,-1.405 0.368,-2.922 0.368,-4.468c0,-2.922 -0.311,-5.339 -0.991,-7.25c-0.651,-1.911 -1.529,-3.316 -2.633,-4.215c-1.105,-0.871 -2.379,-1.321 -3.824,-1.321c-2.407,0 -4.247,1.012 -5.522,3.091c-1.302,2.08 -1.954,5.03 -1.954,8.852Z" style="fill:#003256;"/><path d="M194.239,53.111l-0,1.434c-0.935,0.224 -1.558,0.421 -1.954,0.618c-0.368,0.197 -0.652,0.449 -0.85,0.787c-0.17,0.309 -0.283,0.73 -0.283,1.264c-0,0.534 0.085,1.068 0.198,1.658c0.142,0.59 0.34,1.265 0.623,2.024l5.183,14.978l6.06,-14.36c0.396,-0.928 0.679,-1.714 0.849,-2.333c0.142,-0.618 0.227,-1.18 0.227,-1.714c-0,-0.815 -0.227,-1.461 -0.651,-1.883c-0.454,-0.449 -1.275,-0.786 -2.464,-1.039l-0,-1.434l11.157,0l0,1.434c-0.764,0.168 -1.359,0.393 -1.784,0.73c-0.424,0.309 -0.821,0.843 -1.246,1.546c-0.424,0.674 -0.906,1.658 -1.501,2.922l-10.053,21.947l-3.511,0l-8.099,-22.115c-0.567,-1.518 -1.02,-2.557 -1.331,-3.119c-0.34,-0.563 -0.68,-0.984 -1.077,-1.265c-0.396,-0.281 -0.962,-0.478 -1.67,-0.646l-0,-1.434l12.177,0Z" style="fill:#003256;"/><path d="M219.386,81.859c-1.558,0 -2.889,-0.281 -4.021,-0.871c-1.161,-0.59 -2.039,-1.405 -2.662,-2.473c-0.623,-1.04 -0.907,-2.248 -0.907,-3.625c0,-2.894 1.416,-5.114 4.305,-6.688c2.888,-1.574 7.193,-2.501 12.942,-2.754l-0,-1.911c-0,-2.051 -0.227,-3.681 -0.623,-4.861c-0.397,-1.181 -1.02,-2.052 -1.869,-2.586c-0.85,-0.562 -1.983,-0.843 -3.427,-0.843c-1.529,0 -2.775,0.422 -3.738,1.209c-0.935,0.814 -1.671,2.023 -2.152,3.653l-3.908,-0l-0,-3.85c1.925,-0.984 3.511,-1.714 4.757,-2.164c1.303,-0.478 2.577,-0.843 3.852,-1.096c1.274,-0.281 2.577,-0.393 3.879,-0.393c1.954,-0 3.54,0.309 4.729,0.927c1.218,0.618 2.124,1.574 2.719,2.838c0.595,1.293 0.878,3.204 0.878,5.789l-0,10.313c-0,1.462 0.028,2.501 0.028,3.091c0.029,0.619 0.085,1.181 0.199,1.686c0.084,0.506 0.226,0.928 0.453,1.209c0.198,0.309 0.481,0.59 0.877,0.787c0.369,0.224 0.992,0.449 1.87,0.674l-0,1.939l-18.181,0Zm-0,0m9.657,-13.966c-4.05,0.056 -7.052,0.59 -9.062,1.602c-2.039,1.039 -3.059,2.585 -3.059,4.636c0,1.124 0.227,2.024 0.708,2.67c0.453,0.646 1.048,1.096 1.756,1.349c0.68,0.253 1.501,0.365 2.464,0.365c1.359,0 2.577,-0.337 3.681,-0.984c1.104,-0.646 1.954,-1.461 2.577,-2.472c0.623,-1.012 0.935,-1.996 0.935,-2.979l-0,-4.187Z" style="fill:#003256;"/><path d="M386.892,81.859c-1.558,0 -2.889,-0.281 -4.022,-0.871c-1.161,-0.59 -2.039,-1.405 -2.662,-2.473c-0.623,-1.04 -0.906,-2.248 -0.906,-3.625c0,-2.894 1.416,-5.114 4.305,-6.688c2.888,-1.574 7.193,-2.501 12.913,-2.754l0,-1.911c0,-2.051 -0.198,-3.681 -0.595,-4.861c-0.396,-1.181 -1.019,-2.052 -1.869,-2.586c-0.849,-0.562 -1.982,-0.843 -3.426,-0.843c-1.558,0 -2.804,0.422 -3.738,1.209c-0.935,0.814 -1.671,2.023 -2.153,3.653l-3.908,-0l0,-3.85c1.898,-0.984 3.512,-1.714 4.758,-2.164c1.303,-0.478 2.577,-0.843 3.851,-1.096c1.275,-0.281 2.577,-0.393 3.88,-0.393c1.954,-0 3.54,0.309 4.729,0.927c1.218,0.618 2.124,1.574 2.719,2.838c0.595,1.293 0.878,3.204 0.878,5.789l-0,10.313c-0,1.462 0.028,2.501 0.028,3.091c0.028,0.619 0.085,1.181 0.198,1.686c0.085,0.506 0.227,0.928 0.425,1.209c0.198,0.309 0.51,0.59 0.906,0.787c0.368,0.224 0.991,0.449 1.869,0.674l0,1.939l-18.18,0Zm-0,0m9.628,-13.966c-4.021,0.056 -7.023,0.59 -9.034,1.602c-2.039,1.039 -3.058,2.585 -3.058,4.636c-0,1.124 0.226,2.024 0.708,2.67c0.453,0.646 1.048,1.096 1.756,1.349c0.679,0.253 1.501,0.365 2.463,0.365c1.36,0 2.577,-0.337 3.682,-0.984c1.104,-0.646 1.954,-1.461 2.577,-2.472c0.623,-1.012 0.906,-1.996 0.906,-2.979l0,-4.187Z" style="fill:#003256;"/><path d="M264.809,79.386c0,2.642 -0.34,4.806 -0.963,6.463c-0.623,1.658 -1.67,3.064 -3.143,4.216c-1.501,1.124 -3.596,2.107 -6.258,2.922l-0.963,-2.613c1.727,-0.675 2.973,-1.349 3.738,-2.024c0.736,-0.674 1.246,-1.545 1.529,-2.557c0.283,-1.011 0.425,-2.416 0.425,-4.131l-0,-33.272c-0,-1.714 -0.085,-2.866 -0.255,-3.512c-0.142,-0.618 -0.425,-1.096 -0.821,-1.433c-0.397,-0.338 -1.218,-0.675 -2.436,-0.984l0,-1.433l12.63,-0l0,1.433c-0.877,0.225 -1.5,0.422 -1.897,0.646c-0.368,0.225 -0.68,0.506 -0.906,0.815c-0.227,0.338 -0.397,0.815 -0.51,1.462c-0.113,0.646 -0.17,1.658 -0.17,3.006l0,30.996Z" style="fill:#003256;"/><path d="M267.415,53.111l8.467,0l-0,15.063c-0,2.304 0.085,4.046 0.283,5.255c0.17,1.208 0.453,2.107 0.793,2.726c0.368,0.618 0.878,1.124 1.529,1.545c0.652,0.394 1.558,0.618 2.719,0.618c0.736,0 1.501,-0.168 2.18,-0.449c0.708,-0.309 1.473,-0.815 2.323,-1.546c0.877,-0.759 1.472,-1.489 1.84,-2.22c0.368,-0.731 0.567,-1.574 0.567,-2.529l-0,-11.128c-0,-1.124 -0.029,-1.967 -0.114,-2.529c-0.056,-0.562 -0.141,-1.04 -0.283,-1.377c-0.141,-0.337 -0.311,-0.618 -0.481,-0.843c-0.198,-0.225 -0.482,-0.422 -0.822,-0.59c-0.339,-0.169 -0.906,-0.366 -1.67,-0.562l-0,-1.434l8.467,0l0,20.205c0,1.518 0.057,2.614 0.113,3.288c0.057,0.675 0.17,1.18 0.368,1.602c0.199,0.393 0.51,0.702 0.935,0.955c0.425,0.225 1.161,0.478 2.237,0.675l0,1.545l-6.825,0.309l-1.812,0l0.17,-4.861l-0.453,-0.112c-1.643,1.77 -3.2,3.063 -4.701,3.906c-1.529,0.815 -3.059,1.236 -4.56,1.236c-1.812,0 -3.285,-0.365 -4.474,-1.068c-1.161,-0.702 -2.039,-1.77 -2.605,-3.175c-0.595,-1.405 -0.878,-3.4 -0.878,-5.958l-0,-11.212c-0,-1.63 -0.057,-2.782 -0.198,-3.4c-0.114,-0.619 -0.369,-1.124 -0.737,-1.49c-0.368,-0.365 -1.161,-0.702 -2.378,-1.011l-0,-1.434Z" style="fill:#003256;"/><path d="M318.728,59.575l-2.86,-0c-0.425,-1.18 -0.934,-2.108 -1.529,-2.81c-0.595,-0.675 -1.275,-1.153 -2.039,-1.434c-0.736,-0.252 -1.671,-0.393 -2.775,-0.393c-1.615,0 -2.861,0.365 -3.823,1.096c-0.935,0.731 -1.416,1.742 -1.416,3.035c-0,0.899 0.198,1.658 0.566,2.248c0.397,0.59 0.963,1.152 1.756,1.658c0.793,0.506 2.209,1.18 4.248,2.023c2.01,0.871 3.568,1.686 4.672,2.445c1.105,0.731 1.983,1.574 2.606,2.529c0.623,0.956 0.934,2.108 0.934,3.457c0,1.545 -0.255,2.866 -0.793,3.934c-0.538,1.068 -1.303,1.939 -2.265,2.613c-0.992,0.647 -2.153,1.152 -3.484,1.433c-1.331,0.31 -2.803,0.45 -4.417,0.45c-1.671,0 -3.285,-0.14 -4.871,-0.365c-1.558,-0.253 -3.087,-0.562 -4.559,-0.984l-0,-6.154l2.916,0c0.538,1.799 1.331,3.119 2.379,3.934c1.048,0.815 2.492,1.237 4.333,1.237c0.765,-0 1.444,-0.085 2.124,-0.225c0.708,-0.141 1.303,-0.394 1.841,-0.731c0.538,-0.365 0.962,-0.815 1.274,-1.405c0.34,-0.59 0.481,-1.349 0.481,-2.22c0,-1.011 -0.198,-1.826 -0.594,-2.473c-0.397,-0.618 -1.02,-1.208 -1.841,-1.714c-0.821,-0.534 -2.294,-1.236 -4.446,-2.108c-1.784,-0.758 -3.257,-1.517 -4.333,-2.22c-1.104,-0.702 -1.954,-1.545 -2.577,-2.529c-0.623,-0.955 -0.934,-2.107 -0.934,-3.428c-0,-1.602 0.424,-3.007 1.302,-4.215c0.906,-1.18 2.181,-2.08 3.852,-2.726c1.642,-0.618 3.624,-0.927 5.89,-0.927c1.303,-0 2.577,0.056 3.795,0.168c1.217,0.141 2.747,0.394 4.587,0.759l0,6.042Z" style="fill:#003256;"/><path d="M321.673,54.573c0.992,-0.169 1.784,-0.422 2.408,-0.843c0.594,-0.394 1.076,-0.9 1.444,-1.518c0.34,-0.618 0.623,-1.377 0.821,-2.332c0.198,-0.928 0.425,-2.304 0.651,-4.075l4.22,0l-0,7.278l9.657,0l-0,3.007l-9.657,0l-0,13.18c-0,1.911 0.085,3.428 0.226,4.552c0.17,1.124 0.482,2.023 0.907,2.67c0.424,0.646 0.934,1.096 1.501,1.377c0.538,0.281 1.274,0.421 2.123,0.421c0.822,0 1.586,-0.168 2.266,-0.506c0.708,-0.309 1.388,-0.786 2.067,-1.405l1.331,1.602c-1.416,1.349 -2.747,2.361 -3.993,2.951c-1.302,0.618 -2.605,0.927 -3.964,0.927c-2.549,0 -4.446,-0.759 -5.721,-2.276c-1.246,-1.489 -1.897,-3.85 -1.897,-7.082l-0,-16.411l-4.39,0l0,-1.517Z" style="fill:#003256;"/><path d="M342.573,79.948c0.793,-0.225 1.331,-0.449 1.671,-0.618c0.311,-0.169 0.594,-0.422 0.821,-0.731c0.226,-0.309 0.396,-0.815 0.538,-1.461c0.141,-0.646 0.198,-1.658 0.198,-3.035l0,-12.926c0,-1.265 -0.028,-2.277 -0.057,-3.035c-0.056,-0.787 -0.198,-1.377 -0.424,-1.855c-0.227,-0.45 -0.595,-0.815 -1.076,-1.04c-0.51,-0.225 -1.19,-0.421 -2.068,-0.562l0,-1.574l6.967,-0.252l1.812,-0l0,21.16c0,1.686 0.057,2.866 0.227,3.512c0.17,0.675 0.453,1.181 0.906,1.518c0.453,0.337 1.189,0.646 2.209,0.899l-0,1.461l-11.724,0l-0,-1.461Z" style="fill:#003256;"/><path d="M376.442,53.786l0,6.154l-3.795,0c-0.34,-1.264 -0.764,-2.276 -1.246,-3.007c-0.538,-0.758 -1.104,-1.264 -1.756,-1.573c-0.651,-0.281 -1.472,-0.422 -2.435,-0.422c-1.388,0 -2.634,0.422 -3.71,1.321c-1.076,0.899 -1.925,2.248 -2.548,4.046c-0.623,1.827 -0.935,4.047 -0.935,6.66c0,1.686 0.113,3.232 0.368,4.609c0.227,1.405 0.652,2.585 1.218,3.569c0.566,0.983 1.331,1.742 2.294,2.304c0.963,0.562 2.124,0.843 3.54,0.843c1.359,0 2.662,-0.281 3.851,-0.815c1.189,-0.534 2.407,-1.461 3.681,-2.81l1.7,1.967c-1.02,1.096 -1.898,1.939 -2.662,2.557c-0.793,0.591 -1.615,1.096 -2.492,1.49c-0.935,0.421 -1.785,0.702 -2.662,0.899c-0.85,0.197 -1.813,0.281 -2.804,0.281c-3.766,0 -6.655,-1.236 -8.637,-3.709c-1.983,-2.473 -2.974,-6.042 -2.974,-10.707c0,-2.951 0.538,-5.536 1.643,-7.812c1.133,-2.248 2.69,-3.99 4.729,-5.199c1.982,-1.236 4.304,-1.826 6.938,-1.826c1.614,-0 3.115,0.084 4.531,0.281c1.388,0.168 2.775,0.477 4.163,0.899Z" style="fill:#003256;"/><path d="M366.389,80.623c0.056,0.056 -3.087,-0.394 -3.059,-0.394c0,0 0.878,2.052 0.227,3.625c-0.142,0.394 -0.51,0.675 -0.991,0.956c-0.482,0.253 -1.105,0.477 -1.898,0.562l0.227,1.349c1.869,-0.113 3.313,-0.562 4.304,-1.321c0.992,-0.787 1.501,-1.771 1.501,-3.035c0,-0.337 -0.056,-0.731 -0.141,-1.096c-0.029,-0.253 -0.114,-0.45 -0.17,-0.646Z" style="fill:#003256;"/><path d="M351.975,46.17c-0,2.024 -1.643,3.654 -3.682,3.654c-2.067,-0 -3.681,-1.63 -3.681,-3.654c-0,-2.051 1.614,-3.653 3.681,-3.653c2.039,0 3.682,1.602 3.682,3.653Z" style="fill:#e9aa00;"/></g></svg>